<?xml version="1.0" standalone="no"?>
<!DOCTYPE svg PUBLIC "-//W3C//DTD SVG 20010904//EN"
 "http://www.w3.org/TR/2001/REC-SVG-20010904/DTD/svg10.dtd">
<svg version="1.0" xmlns="http://www.w3.org/2000/svg"
 width="700.000000pt" height="700.000000pt" viewBox="0 0 700.000000 700.000000"
 preserveAspectRatio="xMidYMid meet">
<metadata>
Created by potrace 1.11, written by Peter Selinger 2001-2013
</metadata>
<g transform="translate(0.000000,700.000000) scale(0.100000,-0.100000)"
fill="#000000" stroke="none">
<path d="M1250 4538 c-246 -44 -439 -140 -598 -297 -205 -203 -311 -454 -312
-736 -1 -266 88 -493 271 -690 247 -264 605 -383 961 -320 619 109 985 663
838 1268 -98 400 -456 718 -870 773 -79 10 -237 11 -290 2z"/>
<path d="M5530 4544 c-170 -24 -288 -60 -405 -123 -192 -103 -354 -268 -449
-459 -32 -64 -83 -213 -90 -267 -4 -23 -9 -52 -11 -65 -10 -46 -7 -225 4 -290
46 -265 190 -494 414 -662 108 -81 306 -165 432 -183 28 -4 59 -9 70 -11 11
-3 64 -4 118 -5 234 0 471 75 645 203 76 57 169 146 205 198 17 25 33 47 37
50 6 5 64 101 66 110 0 3 10 25 21 50 20 46 43 111 42 120 0 3 4 17 10 33 26
69 43 304 28 382 -4 17 -9 46 -11 65 -9 57 -13 72 -40 153 -32 95 -54 141
-114 232 -58 87 -87 121 -178 205 -136 126 -361 230 -554 256 -53 7 -210 12
-240 8z"/>
</g>
</svg>
